# xmcd CD database file
# Generated: Fri Mar 5 19:01:18 2004 by KSCD
# 
# Track frame offsets:
#       150
#       22985
#       44053
#       60174
#       76385
#       91877
#       112878
#       140762
#       163289
#       179120
#       196501
#       219973
#       239452
#       261576
#       286184
#       304190
#       324652
#
# Disc length: 4608 seconds
#
# Revision: 1
# Processed by: cddbd v1.5PL3 Copyright (c) Steve Scherf et al.
# Submitted via: Kscd 1.3.3
#
DISCID=f311fe11
DTITLE=Crystallized Ginger - compiled with love by jed
DYEAR=1900
DGENRE=
TTITLE0=Collide
TTITLE1=Tear In Your Hand
TTITLE2=Lady Stardust (demo)
TTITLE3=I'll Be
TTITLE4=All That I'm Good For
TTITLE5=When You Know Why You're Happ
TTITLE6=We Float
TTITLE7=I Do Believe You Are Blushing
TTITLE8=Feed the Tree
TTITLE9=Driving Sideways
TTITLE10=Rope Bridge Crossing
TTITLE11=High And Dry
TTITLE12=Tegan
TTITLE13=You Don't Wanna
TTITLE14=Strangers
TTITLE15=Sugar Water
TTITLE16=Walking in the Dark
EXTD=
EXTT0=
EXTT1=
EXTT2=
EXTT3=
EXTT4=
EXTT5=
EXTT6=
EXTT7=
EXTT8=
EXTT9=
EXTT10=
EXTT11=
EXTT12=
EXTT13=
EXTT14=
EXTT15=
EXTT16=
PLAYORDER=
